<?xml version="1.0" encoding="UTF-8"?><!DOCTYPE svg PUBLIC "-//W3C//DTD SVG 1.0//EN" "http://www.w3.org/TR/2001/REC-SVG-20010904/DTD/svg10.dtd" []><svg xmlns="http://www.w3.org/2000/svg" xmlns:xlink="http://www.w3.org/1999/xlink" height="371.9" preserveAspectRatio="xMidYMid meet" version="1.0" viewBox="-0.6 -2.0 413.4 371.9" width="413.4" zoomAndPan="magnify"><g id="change1_1"><path d="M410.8,103.62l-21.73,253.56c-0.62,7.29-7.04,12.69-14.33,12.06L12.11,338.17 c-7.29-0.62-12.69-7.04-12.06-14.33L24.11,43.04c2.22-25.89,25.01-45.08,50.9-42.86l129.76,11.12 c18.47,1.58,35.37,10.99,46.45,25.85l6.42,8.61l113.12,10.14C394.91,58.05,412.87,79.47,410.8,103.62z" fill="#FF9300"/></g><g id="change2_1"><path d="M369.06,74.81l-121.58-10.9L235.98,48.5c-7.83-10.5-19.79-17.16-32.84-18.28L73.38,19.11c-7.46-0.64-14.73,1.67-20.46,6.49 s-9.24,11.6-9.88,19.06l-23.06,269.1c-0.14,1.59,0.36,3.16,1.39,4.38c1.02,1.22,2.49,1.98,4.08,2.11l339.21,29.06 c0.17,0.01,0.35,0.02,0.52,0.02c3.08,0,5.7-2.36,5.97-5.49l2.82-32.85c0,0,0,0,0,0c0,0,0,0,0,0L391.87,102 C393.05,88.24,382.82,76.05,369.06,74.81z M55,45.68c0.37-4.27,2.37-8.15,5.65-10.91s7.44-4.08,11.71-3.71l129.76,11.12 c9.63,0.83,18.47,5.74,24.24,13.49l8.29,11.11c-6.28,2.58-11.78,6.98-15.69,12.83l-5.14,7.69c-2.95,4.41-8.06,6.86-13.34,6.41 L51.97,80.99L55,45.68z M32.45,308.8l1.79-20.9l327.25,28.04l-1.79,20.9L32.45,308.8z M379.91,100.98l-17.39,203.01L35.27,275.95 l15.68-183l148.51,12.73c0.76,0.06,1.52,0.1,2.27,0.1c8.81,0,17.12-4.39,22.07-11.79l5.14-7.69c4.61-6.9,12.6-10.74,20.88-10.03 l19.09,1.64l99.08,8.88C375.18,87.41,380.53,93.79,379.91,100.98z"/></g></svg>