<?xml version="1.0" encoding="UTF-8"?><!DOCTYPE svg PUBLIC "-//W3C//DTD SVG 1.0//EN" "http://www.w3.org/TR/2001/REC-SVG-20010904/DTD/svg10.dtd" []><svg xmlns="http://www.w3.org/2000/svg" xmlns:xlink="http://www.w3.org/1999/xlink" height="263.7" preserveAspectRatio="xMidYMid meet" version="1.0" viewBox="-1.4 -5.8 487.8 263.7" width="487.8" zoomAndPan="magnify"><g id="change1_1"><path d="M474.62,120.3l-59.09,81.49c-15.16,20.9-43.52,27.44-67.44,15.54c-30.1-14.96-43.81-6.55-54.83,0.21 c-1.35,0.83-2.75,1.69-4.16,2.49c-24.26,13.92-60.93,34.95-109.28,37.57c-3.38,0.18-6.81,0.28-10.2,0.28 c-64.37,0-120.67-35.05-148.5-55.95c-11.38-8.54-18.7-21-20.62-35.09c-1.92-14.05,1.79-27.98,10.43-39.22l62.3-81.01 c8.58-11.16,20.99-18.3,34.95-20.13c13.92-1.81,27.71,1.88,38.85,10.41c19.97,15.13,30.77,10.53,61.83-6.27 c15.41-8.34,32.88-17.79,54.1-23.37C312.46-5.78,365.5-1.23,416.34,20.41c12.03,5.12,26.96,13.47,44.4,24.81 c12.03,7.82,20.42,20.41,23.04,34.52C486.4,93.88,483.06,108.66,474.62,120.3z" fill="#FFB3F7"/></g><g id="change2_1"><path d="M463.87,83.44c-1.63-8.81-6.67-16.35-14.17-21.24c-16.45-10.7-30.34-18.49-41.29-23.15c-46.66-19.87-95.18-24.09-140.3-12.2 c-18.87,4.97-35.21,13.81-49.62,21.6c-29.27,15.84-52.4,28.35-83.72,4.58c-6.87-5.28-15.39-7.57-23.98-6.45 c-8.59,1.12-16.23,5.52-21.52,12.39l-62.3,81.01c-5.32,6.92-7.6,15.49-6.42,24.13c1.18,8.68,5.7,16.36,12.72,21.63 c25.81,19.38,77.84,51.89,136.34,51.89c3.03,0,6.09-0.08,9.11-0.25c43.55-2.36,76.35-21.18,100.3-34.92 c1.12-0.64,2.33-1.39,3.65-2.19c12.83-7.87,34.3-21.03,74.44-1.08c15.03,7.47,32.71,3.56,42.03-9.3l59.09-81.49 C463.5,101.14,465.5,92.27,463.87,83.44z M450.53,102.83l-59.09,81.49c-6.7,9.24-19.08,11.85-30.11,6.37 c-44.85-22.3-70.08-6.82-83.63,1.49c-1.23,0.75-2.36,1.45-3.41,2.05c-23.13,13.26-54.79,31.43-96.09,33.67 c-2.85,0.16-5.74,0.23-8.59,0.23c-55.74,0-105.77-31.32-130.63-49.99c-4.97-3.73-8.17-9.17-9.01-15.32 c-0.83-6.11,0.78-12.17,4.54-17.06l62.3-81.01c3.74-4.86,9.14-7.97,15.21-8.76c1.01-0.13,2.01-0.2,3.01-0.2 c5.03,0,9.89,1.65,13.96,4.78c14.52,11.01,27.72,15.17,40.24,15.17c18.74,0,35.96-9.32,53.76-18.95 c14.62-7.91,29.74-16.09,47.52-20.77c43.06-11.34,89.46-7.27,134.16,11.76c10.29,4.38,24.06,12.12,39.83,22.37 c5.3,3.45,8.86,8.78,10.01,15.01C455.68,91.42,454.26,97.69,450.53,102.83z M100.91,117.92c-0.3-0.81-0.35-1.67-0.14-2.53l8.13-35.9 c0.4-1.73,1.34-2.59,2.06-3.01c1.17-0.67,2.49-0.66,3.73,0.03c0.68,0.38,1.23,0.93,1.61,1.62c0.45,0.81,0.55,1.77,0.31,2.84 l-5.7,24.29l16.9-16.99c0.6-0.61,1.4-0.98,2.31-1.05c0.83-0.06,1.62,0.11,2.35,0.52c0.67,0.37,1.21,0.91,1.61,1.6 c0.5,0.86,0.61,1.82,0.33,2.78l-5.58,23.2l17.88-17.72c1.25-1.28,3.02-1.49,4.72-0.54c1.29,0.72,1.98,1.93,1.9,3.32 c-0.07,1.11-0.55,2.15-1.45,3.08l-26.34,25.74c-0.73,0.69-1.51,1.1-2.36,1.24c-0.22,0.04-0.45,0.06-0.67,0.06 c-0.68,0-1.34-0.17-1.95-0.52c-0.83-0.46-1.44-1.18-1.77-2.07c-0.3-0.81-0.35-1.66-0.14-2.53l5.76-23.24l-16.8,17.09 c-0.67,0.61-1.42,1-2.24,1.16c-0.93,0.19-1.86,0.04-2.69-0.43C101.84,119.52,101.23,118.81,100.91,117.92z M168.5,144.57 c2.14,0,4.21-0.28,6.17-0.85c2.82-0.81,5.38-2.12,7.6-3.9c2.23-1.78,4.06-3.99,5.46-6.57c1.39-2.57,2.27-5.49,2.63-8.67 c0.35-3.14,0.13-6.17-0.66-8.98c-0.79-2.82-2.09-5.39-3.88-7.61c-1.78-2.22-3.98-4.07-6.56-5.48c-2.57-1.41-5.47-2.3-8.62-2.65 c-3.18-0.35-6.23-0.13-9.04,0.68c-2.82,0.81-5.38,2.12-7.59,3.91c-2.21,1.78-4.03,3.99-5.43,6.57c-1.39,2.57-2.27,5.47-2.62,8.61 c-0.35,3.18-0.14,6.22,0.65,9.03c0.79,2.82,2.08,5.38,3.84,7.6s3.96,4.07,6.54,5.48c2.57,1.41,5.49,2.3,8.67,2.66 C166.63,144.52,167.57,144.57,168.5,144.57z M160.89,134.96c-1.65-0.91-3.06-2.11-4.19-3.55c-1.13-1.45-1.97-3.12-2.48-4.96 c-0.51-1.84-0.66-3.84-0.42-5.93c0.23-2.06,0.81-3.96,1.71-5.65c0.91-1.68,2.09-3.12,3.51-4.29c1.42-1.16,3.06-2.02,4.87-2.54 c1.82-0.53,3.8-0.68,5.89-0.45c2.06,0.23,3.94,0.81,5.6,1.73c1.65,0.91,3.06,2.11,4.19,3.55c1.13,1.45,1.97,3.12,2.48,4.96 c0.51,1.84,0.66,3.82,0.43,5.88c-0.23,2.1-0.81,4.01-1.72,5.7c-0.91,1.68-2.09,3.12-3.51,4.29c-1.42,1.16-3.06,2.02-4.87,2.54 c-1.82,0.53-3.78,0.68-5.84,0.45C164.44,136.46,162.54,135.87,160.89,134.96z M206.09,136.53c0.45,1.01,1.22,1.75,2.21,2.12 c0.45,0.17,0.91,0.26,1.38,0.26c0.56,0,1.13-0.12,1.69-0.38c1.01-0.45,1.74-1.22,2.12-2.21c0.38-0.99,0.33-2.05-0.12-3.06 l-4.76-10.59l4.86-2.19l13.36,8.91c0.57,0.4,1.16,0.65,1.75,0.75c0.7,0.12,1.44,0,2.21-0.34c2.05-0.92,2.44-2.46,2.5-3.3 c0.05-0.82-0.14-2.37-2.02-3.63l-11.2-7.49c1.43-1.93,2.3-4.08,2.6-6.4c0.31-2.46-0.08-4.94-1.18-7.38 c-1.13-2.52-2.75-4.53-4.81-5.97c-2.06-1.44-4.4-2.26-6.94-2.44c-2.51-0.17-5.08,0.32-7.64,1.47l-8.69,3.91 c-1.01,0.45-1.75,1.22-2.12,2.21c-0.38,0.99-0.33,2.05,0.12,3.06L206.09,136.53z M214.79,108.03c-0.16,1.09-0.59,2.07-1.31,2.98 c-0.74,0.94-1.73,1.68-3.03,2.26l-5.06,2.27l-5.15-11.46l5.06-2.27c1.29-0.58,2.5-0.82,3.69-0.74c1.16,0.08,2.19,0.43,3.13,1.07 c0.93,0.64,1.65,1.52,2.18,2.71C214.79,105.93,214.95,106.97,214.79,108.03z M220.75,88.95c-0.58-0.9-0.76-1.94-0.53-3 c0.24-1.06,0.84-1.93,1.75-2.5c0.9-0.58,1.94-0.76,3-0.53c1.06,0.23,1.92,0.84,2.5,1.74l6.72,10.54l4.64-20.97 c0.14-0.63,0.35-1.15,0.64-1.58c0.3-0.44,0.69-0.81,1.18-1.13c1.3-0.83,2.44-0.72,3.16-0.48c0.92,0.3,1.67,0.92,2.19,1.78 c0.51,0.86,0.69,1.84,0.53,2.91l-0.03,0.15l-3.89,17.61l20.66,8.03c0.98,0.41,1.71,1.08,2.14,1.94c0.43,0.85,0.54,1.78,0.34,2.7 c-0.22,0.99-0.78,1.8-1.63,2.34c-1.18,0.75-2.5,0.87-3.73,0.34l-19.54-7.5l-0.69,3.22l6.57,10.31c0.58,0.9,0.76,1.94,0.53,3 c-0.24,1.06-0.84,1.93-1.75,2.5c-0.65,0.41-1.37,0.62-2.11,0.62c-0.29,0-0.59-0.03-0.89-0.1c-1.06-0.23-1.93-0.84-2.5-1.75 L220.75,88.95z M259.85,92.36c-0.5-0.99-0.58-2.05-0.24-3.06c0.33-1,1.02-1.79,1.98-2.27l10.71-5.35c0.99-0.49,2.05-0.58,3.05-0.24 c1.01,0.34,1.8,1.04,2.29,2.03c0.48,0.97,0.56,2.01,0.22,3.01c-0.33,1-1.04,1.8-2.03,2.29l-10.72,5.35 c-0.57,0.28-1.16,0.43-1.76,0.43c-0.42,0-0.83-0.07-1.25-0.21C261.12,94.01,260.34,93.32,259.85,92.36z M278.04,57.59 c-0.22-1.05-0.03-2.08,0.56-2.99c0.6-0.91,1.47-1.51,2.52-1.73c1.05-0.22,2.09-0.03,3,0.57c0.91,0.6,1.51,1.46,1.73,2.51l6.61,31.35 l17.54-3.7c1.02-0.21,2.02-0.05,2.91,0.47c0.95,0.56,1.57,1.43,1.79,2.51c0.23,1.08,0.01,2.13-0.62,3.02 c-0.6,0.84-1.46,1.39-2.47,1.61l-21.44,4.52c-0.29,0.06-0.57,0.09-0.86,0.09c-0.74,0-1.45-0.21-2.1-0.61 c-0.92-0.57-1.54-1.46-1.77-2.56L278.04,57.59z M318.21,90.7c-0.73-0.77-1.1-1.76-1.07-2.87l0.99-35.81 c0.03-1.11,0.46-2.08,1.23-2.81c0.77-0.73,1.75-1.1,2.87-1.07c1.1,0.03,2.08,0.45,2.81,1.22c0.73,0.78,1.1,1.77,1.07,2.88 l-0.99,35.81c-0.03,1.11-0.45,2.08-1.22,2.81c-0.75,0.7-1.69,1.07-2.75,1.07c-0.04,0-0.08,0-0.13,0 C319.91,91.89,318.93,91.47,318.21,90.7z M334.84,91.66c-0.64,0.42-1.36,0.63-2.11,0.63c-0.31,0-0.63-0.04-0.96-0.11 c-1.05-0.24-1.9-0.86-2.48-1.78c-0.57-0.92-0.75-1.95-0.51-3l8.11-34.9c0.25-1.08,0.86-1.95,1.76-2.51c0.9-0.56,1.95-0.73,3.03-0.47 l23.28,5.41c1.06,0.25,1.92,0.83,2.49,1.69c0.59,0.89,0.76,1.95,0.51,3.04c-0.24,1.02-0.84,1.85-1.74,2.41 c-0.9,0.56-1.95,0.72-3.02,0.47l-19.4-4.51l-2.28,9.8L355.11,71c1.08,0.25,1.94,0.86,2.51,1.76c0.56,0.91,0.73,1.93,0.49,2.98 c-0.25,1.05-0.85,1.9-1.75,2.46c-0.9,0.56-1.95,0.72-3.02,0.47l-13.59-3.16l-3.18,13.69C336.32,90.23,335.73,91.08,334.84,91.66z M407.34,74.46c0.41,1.02,0.36,2.11-0.14,3.13c-0.46,0.95-1.25,1.64-2.29,1.97c-1,0.33-2.04,0.25-2.99-0.21l-17.93-8.66l-4.38,9.06 l12.56,6.07c1,0.48,1.71,1.27,2.06,2.27c0.35,1,0.29,2.04-0.18,3.01c-0.47,0.97-1.24,1.66-2.25,2.01c-1,0.35-2.06,0.28-3.06-0.2 l-12.56-6.07l-4.44,9.2l17.93,8.66c0.95,0.46,1.65,1.22,2.02,2.21c0.38,1.03,0.34,2.07-0.12,3.02c-0.5,1.03-1.32,1.74-2.36,2.05 c-0.39,0.11-0.78,0.17-1.17,0.17c-0.61,0-1.21-0.14-1.78-0.42l-21.52-10.39c-1-0.48-1.71-1.27-2.06-2.27c-0.35-1-0.28-2.06,0.2-3.06 l15.58-32.26c0.48-1,1.27-1.71,2.27-2.06c1-0.35,2.06-0.28,3.05,0.2l21.52,10.4C406.26,72.76,406.95,73.5,407.34,74.46z M126.35,149.63l-14.9,32.58c-0.46,1.01-1.23,1.74-2.22,2.11c-0.44,0.16-0.9,0.25-1.35,0.25c-0.57,0-1.15-0.13-1.71-0.39 c-1.01-0.46-1.74-1.23-2.11-2.22c-0.37-0.99-0.32-2.05,0.14-3.06l5.97-13.06l-18.98-8.68l-5.97,13.06 c-0.46,1.01-1.23,1.74-2.22,2.11c-0.99,0.37-2.05,0.32-3.06-0.14c-1.01-0.46-1.74-1.23-2.11-2.22c-0.37-0.99-0.32-2.05,0.14-3.06 l14.9-32.58c0.46-1.01,1.23-1.74,2.22-2.11c0.99-0.37,2.05-0.32,3.06,0.14c1,0.46,1.73,1.23,2.1,2.22c0.37,1,0.32,2.05-0.14,3.06 l-5.78,12.64l18.98,8.68l5.78-12.64c0.46-1.01,1.23-1.74,2.22-2.11c0.99-0.37,2.05-0.32,3.06,0.14c1.01,0.46,1.74,1.23,2.11,2.22 C126.86,147.57,126.81,148.63,126.35,149.63z M149.54,154.16c-0.27-1.78-1.37-3.03-3.01-3.43c-1.68-0.41-3.25,0.19-4.29,1.63 l-22.94,30.99c-0.79,1.02-1.03,2.26-0.7,3.57c0.36,1.42,1.4,2.44,2.87,2.79l0,0c0.77,0.19,1.52,0.16,2.25-0.09 c0.76-0.25,1.4-0.73,1.91-1.43l4.49-6.13l16.56,4.03l1.15,7.5l0.03,0.14c0.18,0.8,0.54,1.48,1.06,2.02 c0.53,0.55,1.19,0.92,1.96,1.11c0.33,0.08,0.66,0.12,0.98,0.12c1,0,1.93-0.38,2.7-1.12c1.02-0.98,1.43-2.28,1.16-3.57L149.54,154.16 z M134.86,175.59l8.43-11.51l2.17,14.09L134.86,175.59z M185.13,181.6c2.13-1.1,3.86-2.64,5.15-4.59c1.37-2.07,2.11-4.47,2.2-7.14 c0.09-2.76-0.47-5.28-1.68-7.48c-1.21-2.2-2.95-3.97-5.16-5.25c-2.18-1.26-4.7-1.95-7.5-2.05l-9.52-0.33 c-1.11-0.04-2.1,0.32-2.88,1.05c-0.78,0.72-1.21,1.69-1.24,2.8l-1.23,35.8c-0.04,1.11,0.33,2.11,1.05,2.88 c0.72,0.78,1.69,1.21,2.8,1.25c1.1,0.04,2.1-0.33,2.88-1.05c0.78-0.72,1.21-1.69,1.24-2.8l0.4-11.6l5.33,0.18l8.06,13.89 c0.33,0.61,0.75,1.09,1.25,1.45c0.57,0.41,1.29,0.64,2.14,0.67c0.07,0,0.14,0,0.2,0c2.1,0,3.08-1.16,3.49-1.86 c0.41-0.71,0.92-2.19-0.21-4.14L185.13,181.6z M172.33,162.71l5.54,0.19c1.41,0.05,2.6,0.36,3.64,0.96 c1.01,0.58,1.78,1.35,2.34,2.34c0.56,0.98,0.81,2.09,0.76,3.39c-0.04,1.18-0.36,2.19-0.96,3.07c-0.63,0.91-1.44,1.6-2.49,2.1 c-1.07,0.51-2.32,0.74-3.72,0.69l-5.54-0.19L172.33,162.71z M244.54,184.41c0.26,1.02,0.13,2.05-0.39,2.97 c-0.54,0.95-1.38,1.59-2.44,1.86c-1.08,0.27-2.14,0.12-3.07-0.43c-0.93-0.55-1.56-1.4-1.83-2.44l-4.99-19.59l-4.85,23.24 c-0.4,1.41-1.42,2.39-2.87,2.76c-1.58,0.4-3.08-0.11-4.13-1.41l-15.06-17.42l4.92,19.3c0.27,1.04,0.11,2.09-0.44,3.02 c-0.55,0.93-1.4,1.56-2.44,1.83l0,0c-0.33,0.08-0.67,0.13-1,0.13c-0.7,0-1.39-0.19-2.02-0.57c-0.93-0.55-1.56-1.39-1.83-2.44 l-8.84-34.72c-0.28-1.09-0.12-2.16,0.46-3.08c0.56-0.9,1.4-1.51,2.42-1.77c1.5-0.38,2.9,0.01,3.93,1.12l21.21,24.41l6.72-31.59 c0.43-1.43,1.46-2.42,2.9-2.79c1.04-0.26,2.07-0.12,2.98,0.42c0.92,0.54,1.54,1.4,1.82,2.47L244.54,184.41z M283.66,139.95 c-1.72-2.66-3.8-4.86-6.19-6.54c-2.4-1.69-5.03-2.84-7.82-3.44c-2.78-0.6-5.66-0.63-8.54-0.09c-2.88,0.54-5.69,1.68-8.35,3.4 c-2.69,1.74-4.9,3.84-6.57,6.25c-1.68,2.42-2.82,5.05-3.4,7.83c-0.58,2.78-0.6,5.64-0.04,8.52c0.55,2.87,1.7,5.67,3.42,8.33 c1.74,2.69,3.83,4.9,6.22,6.58c2.39,1.68,5.01,2.85,7.79,3.45c1.47,0.32,2.97,0.49,4.48,0.49c1.34,0,2.69-0.13,4.05-0.38 c2.88-0.54,5.71-1.69,8.4-3.43c2.66-1.72,4.86-3.82,6.53-6.22c1.67-2.41,2.82-5.05,3.42-7.83c0.6-2.79,0.62-5.66,0.07-8.54 C286.56,145.45,285.4,142.63,283.66,139.95z M261.91,166.53c-1.79-0.41-3.5-1.17-5.06-2.27c-1.56-1.1-2.94-2.56-4.08-4.33 c-1.13-1.74-1.88-3.58-2.25-5.45c-0.36-1.87-0.36-3.74,0.01-5.54c0.36-1.8,1.09-3.5,2.16-5.05c1.07-1.56,2.51-2.93,4.28-4.07 c1.74-1.12,3.56-1.87,5.43-2.21c0.85-0.16,1.69-0.23,2.53-0.23c1,0,1.99,0.11,2.96,0.33c1.8,0.41,3.5,1.17,5.06,2.27 c1.56,1.1,2.93,2.54,4.06,4.28c1.15,1.77,1.91,3.62,2.27,5.5c0.36,1.87,0.36,3.74-0.01,5.54c-0.36,1.8-1.09,3.5-2.16,5.05 c-1.07,1.56-2.5,2.92-4.24,4.04l0,0c-1.77,1.14-3.61,1.89-5.47,2.23C265.55,166.96,263.7,166.93,261.91,166.53z M327.12,151.32 c0.11,1.12-0.21,2.15-0.92,2.97c-0.69,0.8-1.61,1.28-2.67,1.38c-0.51,0.04-1.03,0-1.54-0.13c-0.67-0.18-1.25-0.55-1.7-1.07 l-23.29-25.14l2.36,24.65c0.11,1.12-0.21,2.15-0.92,2.97c-0.69,0.8-1.61,1.28-2.67,1.38h0c-0.14,0.01-0.29,0.02-0.43,0.02 c-0.94,0-1.8-0.3-2.51-0.89c-0.81-0.67-1.3-1.61-1.41-2.72l-3.42-35.66c-0.11-1.1,0.19-2.12,0.87-2.94 c0.67-0.82,1.61-1.31,2.72-1.41c1.21-0.11,2.29,0.27,3.17,1.11l0.08,0.08l23.28,25.18l-2.37-24.69c-0.11-1.1,0.19-2.12,0.87-2.94 c0.67-0.82,1.61-1.31,2.72-1.41c1.06-0.1,2.05,0.19,2.88,0.84c0.86,0.68,1.37,1.63,1.47,2.75L327.12,151.32z M368.31,122.23 c0.48,0.78,0.67,1.68,0.55,2.6c-0.12,0.92-0.57,1.78-1.3,2.48l-17.5,17.03l0.12,0.36l-0.39-0.09l-0.44,0.43l-2.82,11.83 c-0.25,1.04-0.87,1.9-1.79,2.47c-0.64,0.4-1.35,0.6-2.07,0.6c-0.31,0-0.62-0.04-0.94-0.11c-1.05-0.25-1.9-0.87-2.47-1.79 c-0.57-0.92-0.74-1.96-0.49-3.01l2.82-11.83l-0.2-0.58l-0.3-0.07l0.2-0.2l-7.91-23.19c-0.48-1.29-0.25-2.33,0.03-2.97 c0.37-0.84,0.98-1.52,1.77-1.95c0.84-0.45,1.79-0.57,2.77-0.34c0.79,0.19,1.43,0.54,1.91,1.06c0.39,0.42,0.7,0.93,0.92,1.52 l6.6,19.83l14.73-14.59c0.56-0.54,1.15-0.91,1.78-1.1c0.67-0.2,1.38-0.22,2.13-0.04C367,120.82,367.79,121.38,368.31,122.23z"/></g></svg>