<?xml version="1.0" encoding="UTF-8"?><!DOCTYPE svg PUBLIC "-//W3C//DTD SVG 1.0//EN" "http://www.w3.org/TR/2001/REC-SVG-20010904/DTD/svg10.dtd" []><svg xmlns="http://www.w3.org/2000/svg" xmlns:xlink="http://www.w3.org/1999/xlink" height="401.8" preserveAspectRatio="xMidYMid meet" version="1.0" viewBox="-0.7 -0.3 300.9 401.8" width="300.9" zoomAndPan="magnify"><g id="change1_1"><path d="M299.89,57.25l-7.15,294.13c-0.68,27.9-23.59,50.13-51.35,50.13c-0.42,0-0.84,0-1.27-0.02l-189.99-4.62 c-28.32-0.69-50.81-24.29-50.12-52.62L7.16,50.13c0.33-13.69,6-26.45,15.95-35.93C33.07,4.72,46.09-0.31,59.78,0.01l189.99,4.62 c13.69,0.33,26.45,6,35.93,15.95C295.18,30.54,300.22,43.56,299.89,57.25z" fill="#002EF4"/></g><g id="change2_1"><path d="M271.94,33.69c-5.98-6.28-14.02-9.85-22.64-10.06L59.32,19.01C59.05,19,58.79,19,58.52,19c-17.49,0-31.94,14.01-32.36,31.6 l-7.15,294.13c-0.43,17.85,13.74,32.73,31.59,33.16l189.99,4.62c0.27,0.01,0.53,0.01,0.8,0.01c8.33,0,16.22-3.16,22.3-8.96 c6.28-5.98,9.85-14.02,10.06-22.64l7.15-294.13C281.1,48.17,277.92,39.97,271.94,33.69z M261.75,350.62 c-0.13,5.41-2.38,10.47-6.34,14.24c-3.96,3.77-9.1,5.77-14.53,5.64l-189.99-4.62c-11.24-0.27-20.15-9.64-19.88-20.87l7.15-294.13 c0.27-11.24,9.65-20.16,20.87-19.88l189.99,4.62c5.41,0.13,10.47,2.38,14.24,6.34c3.77,3.96,5.77,9.12,5.64,14.53L261.75,350.62z M244.77,50.87L62.53,46.44c-3.28-0.09-6.06,2.54-6.14,5.85l-2.72,111.8c-0.04,1.59,0.56,3.13,1.65,4.28 c1.1,1.15,2.61,1.82,4.2,1.86l182.25,4.43c0.05,0,0.1,0,0.15,0c1.54,0,3.02-0.59,4.14-1.66c1.15-1.1,1.82-2.61,1.86-4.2l2.72-111.8 C250.7,53.7,248.08,50.95,244.77,50.87z M236.05,162.52l-170.25-4.14l2.43-99.8l170.25,4.14L236.05,162.52z M150.23,189.21 c-44.44-1.08-81.49,34.2-82.57,78.65c-0.52,21.53,7.37,41.98,22.22,57.57c14.85,15.59,34.89,24.47,56.42,24.99 c0.67,0.02,1.34,0.02,2.01,0.02c20.79,0,40.45-7.86,55.56-22.25c15.59-14.85,24.47-34.89,25-56.42 C229.96,227.33,194.68,190.29,150.23,189.21z M195.61,319.51c-13.27,12.64-30.66,19.37-49,18.92c-18.33-0.45-35.38-8-48.03-21.27 c-12.64-13.27-19.36-30.68-18.92-49c0.91-37.27,31.51-66.96,68.59-66.96c0.56,0,1.13,0.01,1.69,0.02 c37.83,0.92,67.86,32.45,66.94,70.28C216.44,289.81,208.88,306.87,195.61,319.51z M149.05,237.79 c-17.64-0.45-32.38,13.59-32.81,31.25c-0.43,17.66,13.59,32.38,31.25,32.81c0.27,0.01,0.53,0.01,0.8,0.01 c8.26,0,16.08-3.12,22.08-8.84c6.2-5.9,9.72-13.87,9.93-22.42s-2.93-16.68-8.83-22.88S157.61,237.99,149.05,237.79z M162.1,284.33 c-3.88,3.69-8.96,5.66-14.31,5.52c-11.05-0.27-19.82-9.48-19.55-20.52c0.26-10.88,9.2-19.55,20.03-19.55c0.16,0,0.33,0,0.49,0.01 c5.35,0.13,10.33,2.34,14.03,6.21c3.69,3.88,5.65,8.96,5.52,14.31C168.18,275.66,165.97,280.64,162.1,284.33z"/></g></svg>